# This file uses centimeters as units for non-parametric coordinates.

mtllib Big_Bird_Model.mtl
g default
v 0.000000 5.187183 4.440176
v 0.000000 5.059374 0.747823
v 0.000000 5.935916 -2.990417
v 0.000000 0.632853 -13.941305
v 0.000000 -10.869640 -2.900619
v 0.000000 -11.803155 0.701312
v 0.000000 -10.892149 4.188884
v 0.000000 7.728619 -6.121274
v 0.000000 7.865586 -8.483389
v 0.000000 -6.404553 -8.498840
v 0.000000 -8.750467 -6.191285
v 0.000000 3.367756 -12.396512
v 0.000000 6.127165 -10.735149
v 0.000000 -1.165705 -12.446545
v 0.000000 -3.599116 -10.756875
v 0.000000 6.678900 7.434190
v 0.000000 -7.637643 7.829505
v 0.000000 7.339989 10.001377
v 0.000000 0.474013 11.489886
v 0.000000 7.443617 12.076088
v 0.000000 5.172063 13.375839
v 0.000000 7.493201 13.279759
v 0.000000 6.829291 13.941305
v 12.843510 9.843608 6.088084
v 12.642235 10.060138 6.038337
v 12.948420 10.842642 5.117343
v 13.142498 10.675117 5.100203
v 8.771444 -6.305989 4.236784
v 9.437468 0.444867 4.213889
v 10.138737 -0.606630 0.729151
v 8.916420 -6.763132 0.721542
v 4.992475 -9.808187 4.216821
v 5.063768 -10.346367 0.718091
v 8.857042 -5.508765 -2.832388
v 5.041798 -9.265275 -2.886013
v 9.677705 1.586430 -2.732111
v 13.270433 11.503225 4.164931
v 13.456169 11.444255 4.073520
v 6.423949 5.170619 0.750414
v 7.070040 4.445357 4.354435
v 7.290346 5.617177 -2.767816
v 3.269377 6.237562 -8.703545
v 6.004272 3.330951 -8.576303
v 7.805382 2.619283 -6.299060
v 4.593838 5.980860 -6.420308
v 4.908215 -7.015422 -6.233498
v 4.112336 -4.852529 -8.460015
v 7.996680 -2.859696 -6.179074
v 6.561846 -1.086346 -8.463848
v 1.664629 5.011054 -10.954961
v 2.060167 -2.641535 -10.740349
v 0.886594 1.640018 -12.775986
v 3.447513 2.759105 -10.905118
v 0.920601 0.101710 -12.731991
v 3.762012 -0.308735 -10.833746
v 7.673895 2.111334 7.687869
v 4.290170 5.274542 7.516516
v 7.561206 -2.786103 7.813285
v 4.433327 -6.228800 7.859750
v 3.963666 4.967228 10.567839
v 2.235765 6.630449 10.181437
v 4.177032 2.970677 11.056144
v 2.489328 1.446217 11.355171
v 1.640653 6.588621 12.648881
v 0.852195 7.192379 12.293893
v 1.633688 5.920780 13.058683
v 0.845304 5.495125 13.320240
v 0.850890 7.299196 13.493930
v 0.335593 7.481564 13.380297
v 0.839424 7.018452 13.792581
v 0.326818 6.955982 13.937341
v 11.397866 5.769019 3.612589
v 12.929805 4.351914 3.574340
v 10.613397 6.576413 0.950778
v 13.082822 4.236795 0.925171
v 11.478632 7.055370 -1.637956
v 12.923476 5.814974 -1.678048
v 12.255222 7.601405 4.305640
v 13.051718 6.960663 4.326031
v 11.734406 8.170967 1.905106
v 12.893892 7.168957 1.873575
v 12.033735 8.734846 -0.385250
v 12.671234 8.268618 -0.469588
v 12.369225 9.140153 5.334888
v 12.779484 8.792723 5.385643
v 12.264023 9.731857 3.556482
v 12.813433 9.307808 3.533875
v 12.632484 10.307805 1.910745
v 12.935962 10.131749 1.807592
v -12.843511 9.843608 6.088084
v -12.642235 10.060138 6.038337
v -12.948420 10.842642 5.117343
v -13.142498 10.675117 5.100203
v -8.771445 -6.305989 4.236784
v -9.437468 0.444867 4.213889
v -10.138737 -0.606630 0.729151
v -8.916421 -6.763132 0.721542
v -4.992475 -9.808187 4.216821
v -5.063768 -10.346367 0.718091
v -8.857042 -5.508765 -2.832388
v -5.041798 -9.265275 -2.886013
v -9.677705 1.586430 -2.732111
v -13.270433 11.503225 4.164931
v -13.456169 11.444255 4.073520
v -6.423949 5.170619 0.750414
v -7.070040 4.445357 4.354435
v -7.290346 5.617177 -2.767816
v -3.269378 6.237562 -8.703545
v -6.004272 3.330951 -8.576303
v -7.805382 2.619283 -6.299060
v -4.593838 5.980860 -6.420308
v -4.908215 -7.015422 -6.233498
v -4.112336 -4.852529 -8.460015
v -7.996680 -2.859696 -6.179074
v -6.561846 -1.086346 -8.463848
v -1.664629 5.011054 -10.954961
v -2.060167 -2.641535 -10.740349
v -0.886594 1.640018 -12.775986
v -3.447513 2.759105 -10.905118
v -0.920601 0.101710 -12.731991
v -3.762012 -0.308735 -10.833746
v -7.673895 2.111334 7.687869
v -4.290170 5.274542 7.516516
v -7.561206 -2.786103 7.813285
v -4.433327 -6.228800 7.859750
v -3.963666 4.967228 10.567839
v -2.235765 6.630449 10.181437
v -4.177032 2.970677 11.056144
v -2.489328 1.446217 11.355171
v -1.640653 6.588621 12.648881
v -0.852195 7.192379 12.293893
v -1.633688 5.920780 13.058683
v -0.845304 5.495125 13.320240
v -0.850890 7.299196 13.493930
v -0.335593 7.481564 13.380297
v -0.839424 7.018452 13.792581
v -0.326818 6.955982 13.937341
v -11.397866 5.769019 3.612589
v -12.929805 4.351914 3.574340
v -10.613397 6.576413 0.950778
v -13.082822 4.236795 0.925171
v -11.478632 7.055370 -1.637956
v -12.923476 5.814974 -1.678048
v -12.255223 7.601405 4.305640
v -13.051718 6.960663 4.326031
v -11.734406 8.170967 1.905106
v -12.893893 7.168957 1.873575
v -12.033735 8.734846 -0.385250
v -12.671234 8.268618 -0.469588
v -12.369226 9.140153 5.334888
v -12.779484 8.792723 5.385643
v -12.264023 9.731857 3.556482
v -12.813434 9.307808 3.533875
v -12.632485 10.307805 1.910745
v -12.935962 10.131749 1.807592
vt 0.546690 0.080809
vt 0.491771 0.013885
vt 0.539697 0.078335
vt 0.548343 0.073939
vt 0.345876 0.079157
vt 0.348275 0.094587
vt 0.508057 0.089506
vt 0.524976 0.073641
vt 0.368191 0.076624
vt 0.371195 0.094777
vt 0.366116 0.113841
vt 0.342598 0.109998
vt 0.501228 0.021666
vt 0.483588 0.015948
vt 0.530966 0.082081
vt 0.264128 0.069052
vt 0.557846 0.021582
vt 0.541537 0.020464
vt 0.261007 0.089304
vt 0.260645 0.110655
vt 0.525564 0.018961
vt 0.393942 0.094910
vt 0.389496 0.119346
vt 0.390379 0.070759
vt 0.281428 0.140722
vt 0.284343 0.127692
vt 0.306286 0.124505
vt 0.300572 0.136500
vt 0.264734 0.146093
vt 0.261123 0.129545
vt 0.376179 0.141548
vt 0.360106 0.156058
vt 0.343242 0.143575
vt 0.354334 0.131217
vt 0.322491 0.136844
vt 0.331158 0.124937
vt 0.294441 0.167654
vt 0.279151 0.159302
vt 0.287505 0.155311
vt 0.338907 0.165343
vt 0.321194 0.170962
vt 0.331117 0.159030
vt 0.301104 0.152175
vt 0.304902 0.167670
vt 0.317560 0.153384
vt 0.313305 0.168453
vt 0.309121 0.174884
vt 0.287871 0.056234
vt 0.308824 0.060768
vt 0.331707 0.061638
vt 0.353004 0.055240
vt 0.267244 0.051769
vt 0.372033 0.042327
vt 0.281184 0.040025
vt 0.292691 0.040583
vt 0.303076 0.038220
vt 0.311496 0.030165
vt 0.270838 0.038488
vt 0.319285 0.019441
vt 0.277195 0.026031
vt 0.281151 0.026096
vt 0.284199 0.024730
vt 0.286237 0.021848
vt 0.274196 0.025636
vt 0.287931 0.018157
vt 0.269058 0.016368
vt 0.272357 0.018215
vt 0.275097 0.019092
vt 0.276716 0.017740
vt 0.267499 0.015326
vt 0.279245 0.017592
vt 0.502481 0.050274
vt 0.553529 0.045100
vt 0.538700 0.045036
vt 0.490329 0.060981
vt 0.523840 0.041084
vt 0.514518 0.045759
vt 0.496479 0.033889
vt 0.550539 0.056435
vt 0.539076 0.056589
vt 0.484744 0.043423
vt 0.527205 0.052891
vt 0.523460 0.052101
vt 0.495614 0.019615
vt 0.551457 0.066138
vt 0.543169 0.068610
vt 0.483947 0.028647
vt 0.535531 0.069015
vt 0.533949 0.068903
vt 0.471966 0.033630
vt 0.529387 0.083452
vt 0.553550 0.062896
vt 0.501737 0.007856
vt 0.468361 0.050436
vt 0.472311 0.064279
vt 0.312385 0.107355
vt 0.483423 0.094180
vt 0.316341 0.078652
vt 0.579781 0.026807
vt 0.296597 0.074788
vt 0.293994 0.108313
vt 0.290492 0.091552
vt 0.546572 0.075736
vt 0.320819 0.093717
vt 0.564565 0.048067
vt 0.555742 0.055376
vt 0.546690 0.080809
vt 0.546572 0.075736
vt 0.539697 0.078335
vt 0.548343 0.073939
vt 0.345876 0.079157
vt 0.348275 0.094587
vt 0.320819 0.093717
vt 0.316341 0.078652
vt 0.368191 0.076624
vt 0.371195 0.094777
vt 0.366116 0.113841
vt 0.342598 0.109998
vt 0.312385 0.107355
vt 0.529387 0.083452
vt 0.530966 0.082081
vt 0.264128 0.069052
vt 0.296597 0.074788
vt 0.290492 0.091552
vt 0.261007 0.089304
vt 0.260645 0.110655
vt 0.293994 0.108313
vt 0.393942 0.094910
vt 0.389496 0.119346
vt 0.390379 0.070759
vt 0.281428 0.140722
vt 0.284343 0.127692
vt 0.306286 0.124505
vt 0.300572 0.136500
vt 0.264734 0.146093
vt 0.261123 0.129545
vt 0.376179 0.141548
vt 0.360106 0.156058
vt 0.343242 0.143575
vt 0.354334 0.131217
vt 0.322491 0.136844
vt 0.331158 0.124937
vt 0.294441 0.167654
vt 0.279151 0.159302
vt 0.287505 0.155311
vt 0.338907 0.165343
vt 0.321194 0.170962
vt 0.331117 0.159030
vt 0.301104 0.152175
vt 0.304902 0.167670
vt 0.317560 0.153384
vt 0.313305 0.168453
vt 0.309121 0.174884
vt 0.287871 0.056234
vt 0.308824 0.060768
vt 0.331707 0.061638
vt 0.353004 0.055240
vt 0.267244 0.051769
vt 0.372033 0.042327
vt 0.281184 0.040025
vt 0.292691 0.040583
vt 0.303076 0.038220
vt 0.311496 0.030165
vt 0.270838 0.038488
vt 0.319285 0.019441
vt 0.277195 0.026031
vt 0.281151 0.026096
vt 0.284199 0.024730
vt 0.286237 0.021848
vt 0.274196 0.025636
vt 0.287931 0.018157
vt 0.269058 0.016368
vt 0.272357 0.018215
vt 0.275097 0.019092
vt 0.276716 0.017740
vt 0.267499 0.015326
vt 0.279245 0.017592
vt 0.579781 0.026807
vt 0.564565 0.048067
vt 0.553529 0.045100
vt 0.557846 0.021582
vt 0.538700 0.045036
vt 0.541537 0.020464
vt 0.508057 0.089506
vt 0.490329 0.060981
vt 0.502481 0.050274
vt 0.524976 0.073641
vt 0.523840 0.041084
vt 0.525564 0.018961
vt 0.514518 0.045759
vt 0.501228 0.021666
vt 0.483423 0.094180
vt 0.472311 0.064279
vt 0.555742 0.055376
vt 0.550539 0.056435
vt 0.539076 0.056589
vt 0.484744 0.043423
vt 0.496479 0.033889
vt 0.527205 0.052891
vt 0.523460 0.052101
vt 0.468361 0.050436
vt 0.553550 0.062896
vt 0.551457 0.066138
vt 0.543169 0.068610
vt 0.483947 0.028647
vt 0.495614 0.019615
vt 0.535531 0.069015
vt 0.533949 0.068903
vt 0.471966 0.033630
vt 0.491771 0.013885
vt 0.501737 0.007856
vt 0.483588 0.015948
vn 0.934712 -0.240839 0.261362
vn 0.983195 -0.168291 0.070756
vn -0.860387 0.493908 0.125651
vn -0.885093 0.346675 0.310528
vn 0.821552 -0.419183 0.386443
vn 0.884448 -0.465501 -0.032550
vn 0.957087 -0.287816 -0.033852
vn 0.886892 -0.096612 0.451762
vn 0.420451 -0.782195 0.459773
vn 0.477971 -0.876961 -0.049823
vn 0.478226 -0.784309 -0.395169
vn 0.863287 -0.382988 -0.328718
vn 0.877171 -0.068301 -0.475297
vn 0.993126 -0.079009 -0.086365
vn -0.756546 0.653666 -0.018970
vn 0.000000 0.996831 -0.079546
vn 0.258914 0.900171 0.350223
vn -0.074698 0.986379 0.146549
vn -0.000000 0.991526 0.129910
vn 0.000000 0.977963 0.208776
vn 0.257288 0.942571 -0.212987
vn 0.000000 -0.999194 -0.040153
vn 0.000000 -0.912414 -0.409269
vn -0.000000 -0.874458 0.485102
vn 0.524324 0.745993 -0.410584
vn 0.463113 0.885349 -0.041029
vn 0.855227 0.275998 -0.438649
vn 0.730914 0.329513 -0.597650
vn 0.000000 0.959521 -0.281636
vn 0.000000 0.988238 0.152924
vn 0.000000 -0.784672 -0.619911
vn -0.000000 -0.660871 -0.750499
vn 0.437168 -0.518041 -0.735199
vn 0.471709 -0.645279 -0.600921
vn 0.703111 -0.153529 -0.694308
vn 0.821490 -0.238567 -0.517919
vn -0.000000 0.410184 -0.912003
vn 0.000000 0.735857 -0.677137
vn 0.441566 0.529333 -0.724449
vn -0.000000 -0.605436 -0.795894
vn 0.000000 -0.481416 -0.876492
vn 0.395316 -0.470986 -0.788605
vn 0.588267 0.238223 -0.772782
vn 0.528464 0.191110 -0.827165
vn 0.582557 -0.160600 -0.796766
vn 0.536528 -0.211250 -0.817013
vn -0.000000 -0.045172 -0.998979
vn 0.451993 0.889419 -0.068083
vn 0.826439 0.273549 0.492107
vn 0.677080 -0.238444 0.696209
vn 0.317727 -0.502839 0.803868
vn 0.000000 0.963383 -0.268130
vn 0.000000 -0.575680 0.817675
vn 0.479182 0.876385 -0.048301
vn 0.756411 0.482309 0.441837
vn 0.554459 -0.110206 0.824882
vn 0.268581 -0.340602 0.901030
vn 0.000000 0.980625 -0.195896
vn 0.000000 -0.393511 0.919320
vn 0.459003 0.888031 0.026784
vn 0.732887 0.573458 0.366091
vn 0.583127 -0.046386 0.811056
vn 0.287780 -0.316657 0.903831
vn 0.000000 0.998254 -0.059062
vn -0.000000 -0.368490 0.929632
vn 0.286464 0.949028 0.131466
vn 0.644995 0.722545 0.248818
vn 0.560592 0.057942 0.826063
vn 0.212735 -0.074804 0.974242
vn 0.000000 0.996241 0.086624
vn 0.000000 -0.179142 0.983823
vn 0.722809 -0.288343 0.628017
vn -0.211577 0.446828 0.869241
vn -0.461532 0.872850 0.158493
vn 0.902027 -0.417809 -0.108546
vn -0.101760 0.637293 -0.763873
vn 0.722616 -0.124398 -0.679964
vn 0.915333 -0.071914 0.396225
vn -0.857852 0.038453 0.512456
vn -0.923267 0.371665 0.097181
vn 0.998970 0.041420 -0.018533
vn -0.657466 0.659295 -0.364786
vn 0.931562 0.223371 -0.286877
vn 0.945798 -0.191560 0.262243
vn -0.957937 0.063216 0.279930
vn -0.953245 0.295384 0.063814
vn 0.997969 -0.061956 -0.014794
vn -0.793630 0.583130 -0.173526
vn 0.980099 0.109023 -0.165889
vn -0.934712 -0.240838 0.261362
vn 0.885093 0.346675 0.310528
vn 0.860387 0.493909 0.125651
vn -0.983195 -0.168290 0.070756
vn -0.821552 -0.419183 0.386443
vn -0.886892 -0.096612 0.451762
vn -0.957087 -0.287816 -0.033852
vn -0.884448 -0.465501 -0.032551
vn -0.420451 -0.782195 0.459773
vn -0.477971 -0.876962 -0.049823
vn -0.863287 -0.382988 -0.328718
vn -0.478226 -0.784309 -0.395169
vn -0.877171 -0.068300 -0.475297
vn 0.756546 0.653666 -0.018970
vn -0.993126 -0.079009 -0.086365
vn 0.074698 0.986379 0.146549
vn -0.258914 0.900171 0.350223
vn -0.257288 0.942571 -0.212987
vn -0.524324 0.745993 -0.410584
vn -0.730914 0.329513 -0.597650
vn -0.855227 0.275998 -0.438649
vn -0.463113 0.885349 -0.041029
vn -0.471709 -0.645279 -0.600921
vn -0.437168 -0.518041 -0.735199
vn -0.821490 -0.238567 -0.517919
vn -0.703111 -0.153529 -0.694308
vn -0.441566 0.529333 -0.724449
vn -0.395316 -0.470986 -0.788605
vn -0.528465 0.191110 -0.827165
vn -0.588267 0.238223 -0.772782
vn -0.536528 -0.211250 -0.817013
vn -0.582557 -0.160600 -0.796766
vn -0.826439 0.273549 0.492107
vn -0.451993 0.889419 -0.068083
vn -0.677080 -0.238444 0.696209
vn -0.317727 -0.502839 0.803868
vn -0.756411 0.482309 0.441837
vn -0.479182 0.876386 -0.048300
vn -0.554459 -0.110206 0.824882
vn -0.268581 -0.340602 0.901030
vn -0.732887 0.573458 0.366091
vn -0.459003 0.888031 0.026784
vn -0.583126 -0.046386 0.811056
vn -0.287779 -0.316657 0.903832
vn -0.644995 0.722545 0.248818
vn -0.286464 0.949028 0.131466
vn -0.560592 0.057942 0.826063
vn -0.212735 -0.074804 0.974243
vn 0.211577 0.446828 0.869241
vn -0.722809 -0.288343 0.628017
vn 0.461532 0.872850 0.158493
vn -0.902027 -0.417810 -0.108546
vn 0.101760 0.637293 -0.763873
vn -0.722616 -0.124398 -0.679964
vn 0.857852 0.038453 0.512456
vn -0.915332 -0.071914 0.396226
vn 0.923267 0.371665 0.097181
vn -0.998970 0.041420 -0.018533
vn 0.657466 0.659295 -0.364786
vn -0.931562 0.223370 -0.286878
vn 0.957937 0.063216 0.279930
vn -0.945798 -0.191560 0.262243
vn 0.953245 0.295384 0.063814
vn -0.997969 -0.061956 -0.014794
vn 0.793630 0.583130 -0.173526
vn -0.980099 0.109023 -0.165889
s 1
g Bird_Phat Birds
usemtl blinn2SG
f 24/1/1 27/103/2 26/3/3 25/4/4
f 28/5/5 31/6/6 30/104/7 29/98/8
f 32/9/9 33/10/10 31/6/6 28/5/5
f 31/6/6 33/10/10 35/11/11 34/12/12
f 30/104/7 31/6/6 34/12/12 36/96/13
f 26/3/3 27/103/2 38/91/14 37/15/15
f 1/16/16 40/100/17 39/102/18 2/19/19
f 3/20/20 2/19/19 39/102/18 41/101/21
f 6/22/22 5/23/23 35/11/11 33/10/10
f 7/24/24 6/22/22 33/10/10 32/9/9
f 42/25/25 45/26/26 44/27/27 43/28/28
f 45/26/26 42/25/25 9/29/29 8/30/30
f 11/31/31 10/32/32 47/33/33 46/34/34
f 46/34/34 47/33/33 49/35/35 48/36/36
f 48/36/36 49/35/35 43/28/28 44/27/27
f 34/12/12 35/11/11 46/34/34 48/36/36
f 36/96/13 34/12/12 48/36/36 44/27/27
f 41/101/21 36/96/13 44/27/27 45/26/26
f 8/30/30 3/20/20 41/101/21 45/26/26
f 5/23/23 11/31/31 46/34/34 35/11/11
f 12/37/37 13/38/38 50/39/39
f 15/40/40 14/41/41 51/42/42
f 12/37/37 50/39/39 53/43/43 52/44/44
f 52/44/44 53/43/43 55/45/45 54/46/46
f 54/46/46 55/45/45 51/42/42 14/41/41
f 4/47/47 12/37/37 52/44/44
f 14/41/41 4/47/47 54/46/46
f 49/35/35 47/33/33 51/42/42 55/45/45
f 43/28/28 49/35/35 55/45/45 53/43/43
f 42/25/25 43/28/28 53/43/43 50/39/39
f 13/38/38 9/29/29 42/25/25 50/39/39
f 10/32/32 15/40/40 51/42/42 47/33/33
f 54/46/46 4/47/47 52/44/44
f 40/100/17 57/48/48 56/49/49 29/98/8
f 29/98/8 56/49/49 58/50/50 28/5/5
f 28/5/5 58/50/50 59/51/51 32/9/9
f 1/16/16 16/52/52 57/48/48 40/100/17
f 32/9/9 59/51/51 17/53/53 7/24/24
f 57/48/48 61/54/54 60/55/55 56/49/49
f 56/49/49 60/55/55 62/56/56 58/50/50
f 58/50/50 62/56/56 63/57/57 59/51/51
f 16/52/52 18/58/58 61/54/54 57/48/48
f 59/51/51 63/57/57 19/59/59 17/53/53
f 61/54/54 65/60/60 64/61/61 60/55/55
f 60/55/55 64/61/61 66/62/62 62/56/56
f 62/56/56 66/62/62 67/63/63 63/57/57
f 18/58/58 20/64/64 65/60/60 61/54/54
f 63/57/57 67/63/63 21/65/65 19/59/59
f 65/60/60 69/66/66 68/67/67 64/61/61
f 64/61/61 68/67/67 70/68/68 66/62/62
f 66/62/62 70/68/68 71/69/69 67/63/63
f 20/64/64 22/70/70 69/66/66 65/60/60
f 67/63/63 71/69/69 23/71/71 21/65/65
f 23/71/71 71/69/69 69/66/66 22/70/70
f 71/69/69 70/68/68 68/67/67 69/66/66
f 29/99/8 73/105/72 72/73/73 40/17/17
f 40/17/17 72/73/73 74/74/74 39/18/18
f 30/7/7 75/75/75 73/72/72 29/8/8
f 39/18/18 74/74/74 76/76/76 41/21/21
f 41/21/21 76/76/76 77/77/77 36/13/13
f 36/97/13 77/95/77 75/75/75 30/7/7
f 73/105/72 79/106/78 78/79/79 72/73/73
f 72/73/73 78/79/79 80/80/80 74/74/74
f 75/75/75 81/81/81 79/78/78 73/72/72
f 74/74/74 80/80/80 82/82/82 76/76/76
f 76/76/76 82/82/82 83/83/83 77/77/77
f 77/95/77 83/94/83 81/81/81 75/75/75
f 79/106/78 85/92/84 84/85/85 78/79/79
f 78/79/79 84/85/85 86/86/86 80/80/80
f 81/81/81 87/87/87 85/84/84 79/78/78
f 80/80/80 86/86/86 88/88/88 82/82/82
f 82/82/82 88/88/88 89/89/89 83/83/83
f 83/94/83 89/90/89 87/87/87 81/81/81
f 85/92/84 24/1/1 25/4/4 84/85/85
f 84/85/85 25/4/4 26/3/3 86/86/86
f 87/87/87 27/2/2 24/93/1 85/84/84
f 86/86/86 26/3/3 37/15/15 88/88/88
f 88/88/88 37/15/15 38/91/14 89/89/89
f 89/90/89 38/14/14 27/2/2 87/87/87
f 90/107/90 91/110/91 92/109/92 93/108/93
f 94/111/94 95/114/95 96/113/96 97/112/97
f 98/115/98 94/111/94 97/112/97 99/116/99
f 97/112/97 100/118/100 101/117/101 99/116/99
f 96/113/96 102/119/102 100/118/100 97/112/97
f 92/109/92 103/121/103 104/120/104 93/108/93
f 1/122/16 2/125/19 105/124/105 106/123/106
f 3/126/20 107/127/107 105/124/105 2/125/19
f 6/128/22 99/116/99 101/117/101 5/129/23
f 7/130/24 98/115/98 99/116/99 6/128/22
f 108/131/108 109/134/109 110/133/110 111/132/111
f 111/132/111 8/136/30 9/135/29 108/131/108
f 11/137/31 112/140/112 113/139/113 10/138/32
f 112/140/112 114/142/114 115/141/115 113/139/113
f 114/142/114 110/133/110 109/134/109 115/141/115
f 100/118/100 114/142/114 112/140/112 101/117/101
f 102/119/102 110/133/110 114/142/114 100/118/100
f 107/127/107 111/132/111 110/133/110 102/119/102
f 8/136/30 111/132/111 107/127/107 3/126/20
f 5/129/23 101/117/101 112/140/112 11/137/31
f 12/143/37 116/145/116 13/144/38
f 15/146/40 117/148/117 14/147/41
f 12/143/37 118/150/118 119/149/119 116/145/116
f 118/150/118 120/152/120 121/151/121 119/149/119
f 120/152/120 14/147/41 117/148/117 121/151/121
f 4/153/47 118/150/118 12/143/37
f 14/147/41 120/152/120 4/153/47
f 115/141/115 121/151/121 117/148/117 113/139/113
f 109/134/109 119/149/119 121/151/121 115/141/115
f 108/131/108 116/145/116 119/149/119 109/134/109
f 13/144/38 116/145/116 108/131/108 9/135/29
f 10/138/32 113/139/113 117/148/117 15/146/40
f 120/152/120 118/150/118 4/153/47
f 106/123/106 95/114/95 122/155/122 123/154/123
f 95/114/95 94/111/94 124/156/124 122/155/122
f 94/111/94 98/115/98 125/157/125 124/156/124
f 1/122/16 106/123/106 123/154/123 16/158/52
f 98/115/98 7/130/24 17/159/53 125/157/125
f 123/154/123 122/155/122 126/161/126 127/160/127
f 122/155/122 124/156/124 128/162/128 126/161/126
f 124/156/124 125/157/125 129/163/129 128/162/128
f 16/158/52 123/154/123 127/160/127 18/164/58
f 125/157/125 17/159/53 19/165/59 129/163/129
f 127/160/127 126/161/126 130/167/130 131/166/131
f 126/161/126 128/162/128 132/168/132 130/167/130
f 128/162/128 129/163/129 133/169/133 132/168/132
f 18/164/58 127/160/127 131/166/131 20/170/64
f 129/163/129 19/165/59 21/171/65 133/169/133
f 131/166/131 130/167/130 134/173/134 135/172/135
f 130/167/130 132/168/132 136/174/136 134/173/134
f 132/168/132 133/169/133 137/175/137 136/174/136
f 20/170/64 131/166/131 135/172/135 22/176/70
f 133/169/133 21/171/65 23/177/71 137/175/137
f 23/177/71 22/176/70 135/172/135 137/175/137
f 137/175/137 135/172/135 134/173/134 136/174/136
f 95/178/95 106/181/106 138/180/138 139/179/139
f 106/181/106 105/183/105 140/182/140 138/180/138
f 96/184/96 95/187/95 139/186/139 141/185/141
f 105/183/105 107/189/107 142/188/142 140/182/140
f 107/189/107 102/191/102 143/190/143 142/188/142
f 102/192/102 96/184/96 141/185/141 143/193/143
f 139/179/139 138/180/138 144/195/144 145/194/145
f 138/180/138 140/182/140 146/196/146 144/195/144
f 141/185/141 139/186/139 145/198/145 147/197/147
f 140/182/140 142/188/142 148/199/148 146/196/146
f 142/188/142 143/190/143 149/200/149 148/199/148
f 143/193/143 141/185/141 147/197/147 149/201/149
f 145/194/145 144/195/144 150/203/150 151/202/151
f 144/195/144 146/196/146 152/204/152 150/203/150
f 147/197/147 145/198/145 151/206/151 153/205/153
f 146/196/146 148/199/148 154/207/154 152/204/152
f 148/199/148 149/200/149 155/208/155 154/207/154
f 149/201/149 147/197/147 153/205/153 155/209/155
f 151/202/151 150/203/150 91/110/91 90/107/90
f 150/203/150 152/204/152 92/109/92 91/110/91
f 153/205/153 151/206/151 90/211/90 93/210/93
f 152/204/152 154/207/154 103/121/103 92/109/92
f 154/207/154 155/208/155 104/120/104 103/121/103
f 155/209/155 153/205/153 93/210/93 104/212/104
