# This file uses centimeters as units for non-parametric coordinates.

mtllib Picture_Frame_Model.mtl
g default
v -15.746622 -68.004776 -29.378845
v 14.455815 -68.004776 -29.378845
v -15.746622 15.094480 18.400875
v 14.455815 15.094480 18.400875
v -15.746622 27.669586 18.393677
v 14.455815 27.669586 18.393677
v -15.746622 -68.033661 -39.484741
v 14.455815 -68.033661 -39.484741
v -84.677025 68.116653 39.484749
v -92.047836 62.662163 39.484749
v -92.047836 62.662163 18.416830
v -84.677025 68.116653 18.416830
v 92.047836 62.662163 39.484749
v 84.677032 68.116653 39.484749
v 92.047836 62.662163 18.416830
v 84.677032 68.116653 18.416830
v -92.047836 -62.662163 39.484749
v -84.677025 -68.116653 39.484749
v -92.047836 -62.662163 18.416830
v -84.677025 -68.116653 18.416830
v 84.677032 -68.116653 39.484749
v 92.047836 -62.662163 39.484749
v 84.677032 -68.116653 18.416830
v 92.047836 -62.662163 18.416830
v -79.007706 -53.012291 39.484749
v -71.636902 -58.466782 39.484749
v 71.636902 -58.466782 39.484749
v 79.007721 -53.012291 39.484749
v 79.007721 53.012291 39.484749
v 71.636902 58.466782 39.484749
v -71.636902 58.466782 39.484749
v -79.007706 53.012291 39.484749
v -73.715378 -49.095898 34.480766
v -66.344574 -54.550392 34.480766
v 73.715378 -49.095898 34.480766
v 66.344589 -54.550392 34.480766
v 66.344589 54.550392 34.480766
v 73.715378 49.095890 34.480766
v -73.715378 49.095890 34.480766
v -66.344574 54.550392 34.480766
vt 0.654772 0.533184
vt 0.622106 0.533652
vt 0.622045 0.436434
vt 0.653617 0.436149
vt 0.659922 0.425202
vt 0.615331 0.424750
vt 0.612504 0.538661
vt 0.656063 0.544175
vt 0.621660 0.545053
vt 0.581098 0.537696
vt 0.584459 0.424321
vt 0.663788 0.538036
vt 0.669143 0.620948
vt 0.665233 0.623742
vt 0.579681 0.623713
vt 0.575756 0.620982
vt 0.575780 0.553311
vt 0.579690 0.550517
vt 0.665242 0.550547
vt 0.669167 0.553277
vt 0.734059 0.453311
vt 0.743506 0.446285
vt 0.916420 0.446038
vt 0.925842 0.453091
vt 0.925586 0.586825
vt 0.916138 0.593851
vt 0.743226 0.594098
vt 0.733802 0.587044
vt 0.718022 0.615303
vt 0.707411 0.607618
vt 0.724769 0.593654
vt 0.735422 0.602356
vt 0.699466 0.645332
vt 0.688218 0.638609
vt 0.951993 0.607382
vt 0.941368 0.615002
vt 0.924026 0.602039
vt 0.934644 0.593352
vt 0.970874 0.638375
vt 0.959559 0.644972
vt 0.707652 0.432753
vt 0.718277 0.425134
vt 0.735619 0.438097
vt 0.725001 0.446783
vt 0.688771 0.401760
vt 0.700086 0.395164
vt 0.941624 0.424833
vt 0.952233 0.432517
vt 0.934877 0.446481
vt 0.924222 0.437779
vt 0.960179 0.394803
vt 0.971427 0.401526
vt 0.941481 0.642736
vt 0.717995 0.642977
vt 0.718163 0.397399
vt 0.941650 0.397158
vt 0.981632 0.432176
vt 0.981469 0.607658
vt 0.678176 0.432477
vt 0.678012 0.607960
vn 0.000000 -0.498453 0.866917
vn 0.000000 -0.498453 0.866917
vn 0.000000 -0.498453 0.866917
vn 0.000000 -0.498453 0.866917
vn 0.000000 0.517494 -0.855687
vn 0.000000 0.517494 -0.855687
vn 0.000000 0.517494 -0.855687
vn 0.000000 0.517494 -0.855687
vn 0.000000 -0.999996 0.002858
vn 0.000000 -0.999996 0.002858
vn 0.000000 -0.999996 0.002858
vn 0.000000 -0.999996 0.002858
vn 1.000000 -0.000000 0.000000
vn 1.000000 -0.000000 0.000000
vn 1.000000 -0.000000 0.000000
vn 1.000000 -0.000000 0.000000
vn -1.000000 0.000000 0.000000
vn -1.000000 0.000000 0.000000
vn -1.000000 0.000000 0.000000
vn -1.000000 0.000000 0.000000
vn 0.000000 0.000000 -1.000000
vn 0.000000 0.000000 -1.000000
vn 0.000000 0.000000 -1.000000
vn 0.000000 0.000000 -1.000000
vn 0.000000 0.000000 -1.000000
vn 0.000000 0.000000 -1.000000
vn 0.000000 0.000000 -1.000000
vn 0.000000 0.000000 -1.000000
vn 0.000000 0.000000 1.000000
vn 0.000000 0.000000 1.000000
vn 0.000000 0.000000 1.000000
vn 0.000000 0.000000 1.000000
vn 0.000000 0.000000 1.000000
vn 0.000000 0.000000 1.000000
vn 0.000000 0.000000 1.000000
vn 0.000000 0.000000 1.000000
vn 0.000000 0.000000 1.000000
vn -0.000000 0.000000 1.000000
vn -0.000000 0.000000 1.000000
vn 0.000000 0.000000 1.000000
vn -0.594849 0.803837 0.000000
vn -0.594849 0.803837 0.000000
vn -0.594849 0.803837 0.000000
vn -0.594849 0.803837 0.000000
vn 0.000000 0.000000 1.000000
vn 0.000000 0.000000 1.000000
vn 0.000000 0.000000 1.000000
vn 0.000000 0.000000 1.000000
vn 0.594850 0.803837 0.000000
vn 0.594850 0.803837 0.000000
vn 0.594850 0.803837 0.000000
vn 0.594850 0.803837 0.000000
vn -0.000000 0.000000 1.000000
vn 0.000000 0.000000 1.000000
vn 0.000000 0.000000 1.000000
vn -0.000000 0.000000 1.000000
vn -0.594849 -0.803837 0.000000
vn -0.594849 -0.803837 0.000000
vn -0.594849 -0.803837 0.000000
vn -0.594849 -0.803837 0.000000
vn 0.000000 0.000000 1.000000
vn 0.000000 0.000000 1.000000
vn 0.000000 0.000000 1.000000
vn 0.000000 0.000000 1.000000
vn 0.594850 -0.803837 0.000000
vn 0.594850 -0.803837 0.000000
vn 0.594850 -0.803837 0.000000
vn 0.594850 -0.803837 0.000000
vn 0.370108 0.500136 0.782869
vn 0.370107 0.500136 0.782869
vn 0.370108 0.500136 0.782869
vn 0.370108 0.500136 0.782869
vn -0.370107 0.500136 0.782869
vn -0.370107 0.500136 0.782869
vn -0.370107 0.500136 0.782869
vn -0.370107 0.500136 0.782869
vn -0.370108 -0.500136 0.782869
vn -0.370108 -0.500136 0.782869
vn -0.370108 -0.500136 0.782869
vn -0.370108 -0.500136 0.782869
vn 0.370108 -0.500136 0.782869
vn 0.370108 -0.500136 0.782869
vn 0.370108 -0.500136 0.782869
vn 0.370108 -0.500136 0.782869
vn 0.000000 1.000000 0.000000
vn 0.000000 1.000000 0.000000
vn 0.000000 1.000000 0.000000
vn 0.000000 1.000000 0.000000
vn 0.000000 -1.000000 0.000000
vn 0.000000 -1.000000 0.000000
vn 0.000000 -1.000000 0.000000
vn 0.000000 -1.000000 0.000000
vn 1.000000 0.000000 0.000000
vn 1.000000 0.000000 0.000000
vn 1.000000 0.000000 0.000000
vn 1.000000 0.000000 0.000000
vn -1.000000 0.000000 0.000000
vn -1.000000 0.000000 0.000000
vn -1.000000 0.000000 0.000000
vn -1.000000 0.000000 0.000000
vn 0.000000 0.787488 0.616330
vn 0.000000 0.787488 0.616330
vn 0.000000 0.787488 0.616330
vn 0.000000 0.787488 0.616330
vn -0.687034 0.000000 0.726625
vn -0.687034 0.000000 0.726625
vn -0.687034 0.000000 0.726625
vn -0.687034 0.000000 0.726625
vn 0.000000 -0.787488 0.616330
vn 0.000000 -0.787488 0.616330
vn 0.000000 -0.787488 0.616330
vn 0.000000 -0.787488 0.616330
vn 0.687035 0.000000 0.726624
vn 0.687035 0.000000 0.726624
vn 0.687035 0.000000 0.726624
vn 0.687035 0.000000 0.726624
s off
g Picture_Frame
usemtl blinn2SG
f 1/1/1 2/2/2 4/3/3 3/4/4
f 5/11/5 6/6/6 8/7/7 7/10/8
f 7/8/9 8/9/10 2/2/11 1/1/12
f 2/2/13 8/7/14 6/6/15 4/3/16
f 7/12/17 1/1/18 3/4/19 5/5/20
f 11/13/21 12/14/22 16/15/23 15/16/24 24/17/25 23/18/26 20/19/27 19/20/28
f 33/21/29 34/22/30 36/23/31 35/24/32 38/25/33 37/26/34 40/27/35 39/28/36
s 1
f 9/29/37 10/30/38 32/31/39 31/32/40
s off
f 10/30/41 9/29/42 12/33/43 11/34/44
s 1
f 13/35/45 14/36/46 30/37/47 29/38/48
s off
f 14/36/49 13/35/50 15/39/51 16/40/52
s 1
f 17/41/53 18/42/54 26/43/55 25/44/56
s off
f 18/42/57 17/41/58 19/45/59 20/46/60
s 1
f 21/47/61 22/48/62 28/49/63 27/50/64
s off
f 22/48/65 21/47/66 23/51/67 24/52/68
f 25/44/69 26/43/70 34/22/71 33/21/72
f 27/50/73 28/49/74 35/24/75 36/23/76
f 29/38/77 30/37/78 37/26/79 38/25/80
f 31/32/81 32/31/82 39/28/83 40/27/84
f 9/29/85 14/36/86 16/53/87 12/54/88
f 18/42/89 20/55/90 23/56/91 21/47/92
f 22/48/93 24/57/94 15/58/95 13/35/96
f 19/59/97 17/41/98 10/30/99 11/60/100
s 1
f 18/42/54 21/47/61 27/50/64 26/43/55
f 22/48/62 13/35/45 29/38/48 28/49/63
f 14/36/46 9/29/37 31/32/40 30/37/47
f 10/30/38 17/41/53 25/44/56 32/31/39
s off
f 26/43/101 27/50/102 36/23/103 34/22/104
f 28/49/105 29/38/106 38/25/107 35/24/108
f 30/37/109 31/32/110 40/27/111 37/26/112
f 32/31/113 25/44/114 33/21/115 39/28/116
